<svg width="124" height="32" viewBox="0 0 124 32" fill="none" xmlns="http://www.w3.org/2000/svg">
<path d="M6.39001 3.3959H12.918L13.314 6.9119H17.958L12.318 28.6039H7.24201L1.60201 6.9119H6.24601L6.39001 3.3959ZM10.098 24.9799L12.594 10.1399H7.60201L10.098 24.9799Z" fill="currentColor"/>
<path d="M22.0471 3.3959H33.1951V6.9119H25.9351V14.1599H32.4031V17.6759H25.9351V25.0879H33.1951V28.6039H22.0471V3.3959Z" fill="currentColor"/>
<path d="M42.7413 28.6039H37.3773V3.3959H42.7413V28.6039Z" fill="currentColor"/>
<path d="M46.9948 3.3959H52.3588V25.0879H59.6188V28.6039H46.9948V3.3959Z" fill="currentColor"/>
<path d="M72.2969 28.6039H66.9329L61.2329 19.3319V28.6039H55.8689V3.3959H61.2329V12.6679L66.9329 3.3959H72.2969L68.1089 12.6679L72.2969 21.9559V28.6039Z" fill="currentColor"/>
<path d="M84.7749 3.3959L78.0789 28.6039H72.6549L79.3509 3.3959H84.7749Z" fill="currentColor"/>
<path d="M87.9359 3.3959H93.2999V28.6039H87.9359V3.3959Z" fill="currentColor"/>
<path d="M102.58 28.6039H97.216L91.516 19.3319V28.6039H86.152V3.3959H91.516V12.6679L97.216 3.3959H102.58L98.392 12.6679L102.58 21.9559V28.6039Z" fill="currentColor"/>
<path d="M116.593 28.6039L113.137 22.8439H107.521L105.785 28.6039H100.249L108.313 3.3959H112.345L120.409 28.6039H116.593ZM110.329 19.3319H113.321L111.825 14.8919C111.513 13.7879 111.201 12.6679 110.945 11.5319H110.885C110.629 12.6679 110.317 13.7879 110.005 14.8919L108.509 19.3319H110.329Z" fill="currentColor"/>
</svg>